<svg xmlns="http://www.w3.org/2000/svg" viewBox="0 0 100 100" fill="none">
  <!-- Outer luxury shield contour -->
  <path d="M50 8 L85 28 L85 68 L50 92 L15 68 L15 28 Z" stroke="#D4AF37" stroke-width="1.5" stroke-linejoin="round" />
  <!-- Secondary inner accent line -->
  <path d="M50 14 L78 31 L78 64 L50 85 L22 64 L22 31 Z" stroke="#D4AF37" stroke-width="0.75" stroke-linejoin="round" opacity="0.6" />
  <!-- Wave-shaped crowns (representing sanctuary pool & luxury) -->
  <path d="M32 42 C38 38, 44 38, 50 42 C56 38, 62 38, 68 42" stroke="#D4AF37" stroke-width="1.75" stroke-linecap="round" />
  <path d="M28 51 C35 46, 42 46, 50 51 C58 46, 65 46, 72 51" stroke="#D4AF37" stroke-width="1.75" stroke-linecap="round" />
  <path d="M32 60 C38 56, 44 56, 50 60 C56 56, 62 56, 68 60" stroke="#D4AF37" stroke-width="1.75" stroke-linecap="round" />
  <!-- Golden Core Star -->
  <polygon points="50,23 52,28 57,28 53,31 55,36 50,33 45,36 47,31 43,28 48,28" fill="#D4AF37" />
  <!-- Serif Branding Monogram -->
  <text x="50" y="77" fill="#D4AF37" font-family="'Cormorant Garamond', Georgia, serif" font-size="14" font-weight="300" text-anchor="middle" letter-spacing="3">BOSS</text>
</svg>
